<mxfile host="Electron" agent="Mozilla/5.0 (X11; Linux x86_64) AppleWebKit/537.36 (KHTML, like Gecko) draw.io/27.0.9 Chrome/134.0.6998.205 Electron/35.5.1 Safari/537.36" version="27.0.9">
  <diagram id="FSM_Diagram" name="Page-1">
    <mxGraphModel dx="1143" dy="703" grid="1" gridSize="10" guides="1" tooltips="1" connect="1" arrows="1" fold="1" page="1" pageScale="1" pageWidth="850" pageHeight="1100" math="0" shadow="0">
      <root>
        <mxCell id="0" />
        <mxCell id="1" parent="0" />
        <mxCell id="x4i67WjF1b1k2a0bV50n-1" value="normal" style="rounded=1;whiteSpace=wrap;html=1;align=center;verticalAlign=middle;fillColor=default;strokeColor=default;arcSize=50;fontFamily=Helvetica;fontSize=12;fontColor=default;" parent="1" vertex="1">
          <mxGeometry x="140" y="310" width="120" height="60" as="geometry" />
        </mxCell>
        <mxCell id="x4i67WjF1b1k2a0bV50n-2" value="accumulator" style="rounded=1;whiteSpace=wrap;html=1;align=center;verticalAlign=middle;fillColor=default;strokeColor=default;arcSize=50;fontFamily=Helvetica;fontSize=12;fontColor=default;" parent="1" vertex="1">
          <mxGeometry x="380" y="490" width="120" height="60" as="geometry" />
        </mxCell>
        <mxCell id="x4i67WjF1b1k2a0bV50n-3" value="result" style="rounded=1;whiteSpace=wrap;html=1;align=center;verticalAlign=middle;fillColor=default;strokeColor=default;fontFamily=Helvetica;fontSize=12;fontColor=default;arcSize=50;" parent="1" vertex="1">
          <mxGeometry x="560" y="240" width="120" height="60" as="geometry" />
        </mxCell>
        <mxCell id="x4i67WjF1b1k2a0bV50n-4" value="" style="endArrow=classic;html=1;entryX=0;entryY=0.5;entryDx=0;entryDy=0;" parent="1" source="x4i67WjF1b1k2a0bV50n-5" target="x4i67WjF1b1k2a0bV50n-1" edge="1">
          <mxGeometry x="0.0021" width="50" height="50" relative="1" as="geometry">
            <mxPoint x="60" y="300" as="sourcePoint" />
            <mxPoint x="150" y="300" as="targetPoint" />
            <Array as="points">
              <mxPoint x="120" y="330" />
            </Array>
            <mxPoint as="offset" />
          </mxGeometry>
        </mxCell>
        <mxCell id="x4i67WjF1b1k2a0bV50n-5" value="" style="endArrow=none;html=1;rounded=1;align=center;verticalAlign=middle;arcSize=50;fontFamily=Helvetica;fontSize=12;fillStyle=solid;fillColor=#f5f5f5;fontColor=#333333;strokeColor=#666666;" parent="1" vertex="1">
          <mxGeometry x="90" y="300" width="20" height="20" as="geometry" />
        </mxCell>
        <mxCell id="x4i67WjF1b1k2a0bV50n-6" value="NUM / &lt;br&gt;addToBuffer(num)" style="edgeStyle=orthogonalEdgeStyle;rounded=0;html=1;align=center;dashed=0;startArrow=none;endArrow=classic;verticalAlign=bottom;curved=1;exitX=0.233;exitY=0.022;exitDx=0;exitDy=0;exitPerimeter=0;" parent="1" source="x4i67WjF1b1k2a0bV50n-1" target="x4i67WjF1b1k2a0bV50n-1" edge="1">
          <mxGeometry x="-0.5598" y="28" relative="1" as="geometry">
            <mxPoint x="250" y="270" as="sourcePoint" />
            <mxPoint x="250" y="230" as="targetPoint" />
            <Array as="points">
              <mxPoint x="180" y="280" />
            </Array>
            <mxPoint as="offset" />
          </mxGeometry>
        </mxCell>
        <mxCell id="x4i67WjF1b1k2a0bV50n-7" value="AC / allClear()" style="edgeStyle=orthogonalEdgeStyle;rounded=0;html=1;align=center;dashed=0;startArrow=none;endArrow=classic;verticalAlign=bottom;curved=1;exitX=0.331;exitY=0.989;exitDx=0;exitDy=0;exitPerimeter=0;" parent="1" source="x4i67WjF1b1k2a0bV50n-1" target="x4i67WjF1b1k2a0bV50n-1" edge="1">
          <mxGeometry x="0.0571" y="-20" relative="1" as="geometry">
            <mxPoint x="250" y="330" as="sourcePoint" />
            <mxPoint x="250" y="370" as="targetPoint" />
            <Array as="points">
              <mxPoint x="220" y="400" />
            </Array>
            <mxPoint as="offset" />
          </mxGeometry>
        </mxCell>
        <mxCell id="x4i67WjF1b1k2a0bV50n-8" value="C / clear()" style="edgeStyle=orthogonalEdgeStyle;rounded=0;html=1;align=center;dashed=0;startArrow=none;endArrow=classic;verticalAlign=bottom;curved=1;exitX=0.044;exitY=0.817;exitDx=0;exitDy=0;exitPerimeter=0;entryX=0.217;entryY=0.996;entryDx=0;entryDy=0;entryPerimeter=0;" parent="1" source="x4i67WjF1b1k2a0bV50n-1" target="x4i67WjF1b1k2a0bV50n-1" edge="1">
          <mxGeometry x="0.0948" y="-5" relative="1" as="geometry">
            <mxPoint x="250" y="330" as="sourcePoint" />
            <mxPoint x="280" y="350" as="targetPoint" />
            <Array as="points">
              <mxPoint x="120" y="400" />
            </Array>
            <mxPoint as="offset" />
          </mxGeometry>
        </mxCell>
        <mxCell id="x4i67WjF1b1k2a0bV50n-9" value="OP [opValid(op)] / &lt;br&gt;saveAns(op)" style="endArrow=classic;html=1;exitX=0.936;exitY=0.859;exitDx=0;exitDy=0;entryX=0.25;entryY=0;entryDx=0;entryDy=0;edgeStyle=orthogonalEdgeStyle;curved=1;exitPerimeter=0;" parent="1" source="x4i67WjF1b1k2a0bV50n-1" target="x4i67WjF1b1k2a0bV50n-2" edge="1">
          <mxGeometry x="0.4757" y="-34" width="50" height="50" relative="1" as="geometry">
            <mxPoint x="310" y="300" as="sourcePoint" />
            <mxPoint x="360" y="300" as="targetPoint" />
            <mxPoint as="offset" />
          </mxGeometry>
        </mxCell>
        <mxCell id="x4i67WjF1b1k2a0bV50n-10" value="UnOP [unopValid(op)] / &lt;br&gt;unopFn(op)" style="rounded=0;html=1;align=center;dashed=0;startArrow=none;endArrow=classic;verticalAlign=bottom;exitX=0.75;exitY=0;exitDx=0;exitDy=0;edgeStyle=orthogonalEdgeStyle;curved=1;entryX=0.066;entryY=0.178;entryDx=0;entryDy=0;entryPerimeter=0;" parent="1" source="x4i67WjF1b1k2a0bV50n-1" target="x4i67WjF1b1k2a0bV50n-3" edge="1">
          <mxGeometry x="0.0029" y="-30" relative="1" as="geometry">
            <mxPoint x="200" y="310" as="sourcePoint" />
            <mxPoint x="630" y="280" as="targetPoint" />
            <Array as="points">
              <mxPoint x="230" y="210" />
              <mxPoint x="568" y="210" />
            </Array>
            <mxPoint as="offset" />
          </mxGeometry>
        </mxCell>
        <mxCell id="x4i67WjF1b1k2a0bV50n-11" value="NUM / &lt;br&gt;addToBuffer(num)" style="edgeStyle=orthogonalEdgeStyle;rounded=0;html=1;align=center;dashed=0;startArrow=none;endArrow=classic;verticalAlign=bottom;curved=1;exitX=0.111;exitY=0.922;exitDx=0;exitDy=0;exitPerimeter=0;entryX=0.326;entryY=1.013;entryDx=0;entryDy=0;entryPerimeter=0;elbow=vertical;" parent="1" source="x4i67WjF1b1k2a0bV50n-2" target="x4i67WjF1b1k2a0bV50n-2" edge="1">
          <mxGeometry x="-0.1358" y="41" relative="1" as="geometry">
            <mxPoint x="470" y="270" as="sourcePoint" />
            <mxPoint x="470" y="230" as="targetPoint" />
            <Array as="points">
              <mxPoint x="380" y="580" />
            </Array>
            <mxPoint x="-15" y="23" as="offset" />
          </mxGeometry>
        </mxCell>
        <mxCell id="x4i67WjF1b1k2a0bV50n-12" value="OP [opValid(op)] / &lt;br&gt;evalAcuResult(op)" style="edgeStyle=orthogonalEdgeStyle;rounded=0;html=1;align=center;dashed=0;startArrow=none;endArrow=classic;verticalAlign=bottom;curved=1;exitX=0.371;exitY=1.004;exitDx=0;exitDy=0;exitPerimeter=0;entryX=0.621;entryY=1.024;entryDx=0;entryDy=0;entryPerimeter=0;elbow=horizontal;" parent="1" source="x4i67WjF1b1k2a0bV50n-2" target="x4i67WjF1b1k2a0bV50n-2" edge="1">
          <mxGeometry x="-0.0415" y="-10" relative="1" as="geometry">
            <mxPoint x="470" y="330" as="sourcePoint" />
            <mxPoint x="470" y="370" as="targetPoint" />
            <Array as="points">
              <mxPoint x="430" y="600" />
            </Array>
            <mxPoint x="-9" y="5" as="offset" />
          </mxGeometry>
        </mxCell>
        <mxCell id="x4i67WjF1b1k2a0bV50n-13" value="AC / allClear()" style="rounded=0;html=1;align=center;dashed=0;startArrow=none;endArrow=classic;verticalAlign=bottom;entryX=0.827;entryY=1.023;entryDx=0;entryDy=0;entryPerimeter=0;edgeStyle=orthogonalEdgeStyle;curved=1;" parent="1" source="x4i67WjF1b1k2a0bV50n-2" target="x4i67WjF1b1k2a0bV50n-1" edge="1">
          <mxGeometry x="0.1803" y="-21" relative="1" as="geometry">
            <mxPoint x="410" y="300" as="sourcePoint" />
            <mxPoint x="310" y="300" as="targetPoint" />
            <mxPoint as="offset" />
          </mxGeometry>
        </mxCell>
        <mxCell id="x4i67WjF1b1k2a0bV50n-14" value="C / clear()" style="edgeStyle=orthogonalEdgeStyle;rounded=0;html=1;align=center;dashed=0;startArrow=none;endArrow=classic;verticalAlign=bottom;curved=1;exitX=0.682;exitY=1.018;exitDx=0;exitDy=0;entryX=0.976;entryY=0.773;entryDx=0;entryDy=0;entryPerimeter=0;exitPerimeter=0;" parent="1" source="x4i67WjF1b1k2a0bV50n-2" target="x4i67WjF1b1k2a0bV50n-2" edge="1">
          <mxGeometry x="0.0309" y="-20" relative="1" as="geometry">
            <mxPoint x="470" y="330" as="sourcePoint" />
            <mxPoint x="500" y="350" as="targetPoint" />
            <Array as="points">
              <mxPoint x="490" y="580" />
            </Array>
            <mxPoint as="offset" />
          </mxGeometry>
        </mxCell>
        <mxCell id="x4i67WjF1b1k2a0bV50n-15" value="EVAL / &lt;br&gt;evalResult()" style="endArrow=classic;html=1;exitX=1;exitY=0.5;exitDx=0;exitDy=0;entryX=0.23;entryY=0.99;entryDx=0;entryDy=0;edgeStyle=orthogonalEdgeStyle;curved=1;entryPerimeter=0;" parent="1" source="x4i67WjF1b1k2a0bV50n-2" target="x4i67WjF1b1k2a0bV50n-3" edge="1">
          <mxGeometry x="0.135" y="28" width="50" height="50" relative="1" as="geometry">
            <mxPoint x="530" y="300" as="sourcePoint" />
            <mxPoint x="580" y="300" as="targetPoint" />
            <mxPoint as="offset" />
          </mxGeometry>
        </mxCell>
        <mxCell id="x4i67WjF1b1k2a0bV50n-16" value="NUM / &lt;br&gt;addToBuffer(num)" style="edgeStyle=orthogonalEdgeStyle;rounded=0;html=1;align=center;dashed=0;startArrow=none;endArrow=classic;verticalAlign=bottom;curved=1;entryX=1;entryY=0.5;entryDx=0;entryDy=0;exitX=0.016;exitY=0.689;exitDx=0;exitDy=0;exitPerimeter=0;" parent="1" source="x4i67WjF1b1k2a0bV50n-3" target="x4i67WjF1b1k2a0bV50n-1" edge="1">
          <mxGeometry x="-0.2432" y="-10" relative="1" as="geometry">
            <mxPoint x="630" y="300" as="sourcePoint" />
            <mxPoint x="310" y="300" as="targetPoint" />
            <Array as="points">
              <mxPoint x="562" y="280" />
              <mxPoint x="470" y="280" />
              <mxPoint x="470" y="340" />
            </Array>
            <mxPoint as="offset" />
          </mxGeometry>
        </mxCell>
        <mxCell id="x4i67WjF1b1k2a0bV50n-17" value="OP [opValid(op)] / &lt;br&gt;saveOp(op)" style="rounded=0;html=1;align=center;dashed=0;startArrow=none;endArrow=classic;verticalAlign=bottom;edgeStyle=orthogonalEdgeStyle;curved=1;exitX=0.137;exitY=0.93;exitDx=0;exitDy=0;exitPerimeter=0;" parent="1" source="x4i67WjF1b1k2a0bV50n-3" target="x4i67WjF1b1k2a0bV50n-2" edge="1">
          <mxGeometry x="0.3807" relative="1" as="geometry">
            <mxPoint x="630" y="300" as="sourcePoint" />
            <mxPoint x="530" y="300" as="targetPoint" />
            <Array as="points">
              <mxPoint x="480" y="296" />
            </Array>
            <mxPoint as="offset" />
          </mxGeometry>
        </mxCell>
        <mxCell id="x4i67WjF1b1k2a0bV50n-18" value="AC / allClear()" style="rounded=0;html=1;align=center;dashed=0;startArrow=none;endArrow=classic;verticalAlign=bottom;exitX=0.008;exitY=0.358;exitDx=0;exitDy=0;exitPerimeter=0;entryX=0.891;entryY=0.088;entryDx=0;entryDy=0;entryPerimeter=0;edgeStyle=orthogonalEdgeStyle;curved=1;" parent="1" source="x4i67WjF1b1k2a0bV50n-3" target="x4i67WjF1b1k2a0bV50n-1" edge="1">
          <mxGeometry x="0.0755" relative="1" as="geometry">
            <mxPoint x="630" y="300" as="sourcePoint" />
            <mxPoint x="310" y="300" as="targetPoint" />
            <Array as="points">
              <mxPoint x="560" y="262" />
              <mxPoint x="560" y="260" />
              <mxPoint x="400" y="260" />
              <mxPoint x="400" y="315" />
            </Array>
            <mxPoint as="offset" />
          </mxGeometry>
        </mxCell>
        <mxCell id="x4i67WjF1b1k2a0bV50n-19" value="C / clear()" style="edgeStyle=orthogonalEdgeStyle;rounded=0;html=1;align=center;dashed=0;startArrow=none;endArrow=classic;verticalAlign=bottom;curved=1;exitX=0.5;exitY=1;exitDx=0;exitDy=0;entryX=0.797;entryY=1.037;entryDx=0;entryDy=0;entryPerimeter=0;" parent="1" source="x4i67WjF1b1k2a0bV50n-3" target="x4i67WjF1b1k2a0bV50n-3" edge="1">
          <mxGeometry x="0.0448" relative="1" as="geometry">
            <mxPoint x="690" y="330" as="sourcePoint" />
            <mxPoint x="690" y="370" as="targetPoint" />
            <Array as="points">
              <mxPoint x="640" y="350" />
            </Array>
            <mxPoint as="offset" />
          </mxGeometry>
        </mxCell>
        <mxCell id="x4i67WjF1b1k2a0bV50n-20" value="UnOP [unopValid(op)] / &lt;br&gt;unopFn(op)" style="edgeStyle=orthogonalEdgeStyle;rounded=0;html=1;align=center;dashed=0;startArrow=none;endArrow=classic;verticalAlign=bottom;curved=1;exitX=0.383;exitY=0.006;exitDx=0;exitDy=0;exitPerimeter=0;entryX=0.75;entryY=0;entryDx=0;entryDy=0;" parent="1" source="x4i67WjF1b1k2a0bV50n-3" target="x4i67WjF1b1k2a0bV50n-3" edge="1">
          <mxGeometry x="0.5549" y="11" relative="1" as="geometry">
            <mxPoint x="690" y="270" as="sourcePoint" />
            <mxPoint x="690" y="230" as="targetPoint" />
            <Array as="points">
              <mxPoint x="640" y="190" />
            </Array>
            <mxPoint as="offset" />
          </mxGeometry>
        </mxCell>
      </root>
    </mxGraphModel>
  </diagram>
</mxfile>
